<svg width="100" height="100" viewBox="0 0 100 100" fill="none" xmlns="http://www.w3.org/2000/svg">
<rect width="100" height="100" rx="15" fill="#EC5990"/>
<path d="M67.0428 22.5299H55.8883C55.4897 21.2148 54.7049 20.0673 53.6471 19.2531C52.5894 18.4388 51.3134 18 50.0036 18C48.6938 18 47.4179 18.4388 46.3601 19.2531C45.3023 20.0673 44.5175 21.2148 44.1189 22.5299H32.9572C30.8468 22.5299 28.8229 23.4136 27.3306 24.9864C25.8383 26.5593 25 28.6925 25 30.9169V74.613C25 76.8374 25.8383 78.9707 27.3306 80.5435C28.8229 82.1164 30.8468 83 32.9572 83H67.0428C69.1532 83 71.1771 82.1164 72.6694 80.5435C74.1617 78.9707 75 76.8374 75 74.613V30.9169C75 28.6925 74.1617 26.5593 72.6694 24.9864C71.1771 23.4136 69.1532 22.5299 67.0428 22.5299ZM44.6759 24.0548C44.8441 24.0588 45.0084 24.0008 45.1404 23.8909C45.2725 23.7809 45.364 23.6259 45.3993 23.4525C45.6292 22.3406 46.2131 21.345 47.0539 20.6311C47.8948 19.9172 48.942 19.5279 50.0217 19.5279C51.1014 19.5279 52.1486 19.9172 52.9895 20.6311C53.8303 21.345 54.4142 22.3406 54.6441 23.4525C54.6794 23.6259 54.7709 23.7809 54.903 23.8909C55.035 24.0008 55.1993 24.0588 55.3675 24.0548H59.2593V29.0489C59.2593 29.6555 59.0306 30.2373 58.6236 30.6663C58.2167 31.0953 57.6647 31.3363 57.0891 31.3363H42.9471C42.3715 31.3363 41.8195 31.0953 41.4125 30.6663C41.0056 30.2373 40.7769 29.6555 40.7769 29.0489V24.0548H44.6759ZM73.5532 74.613C73.5532 76.433 72.8673 78.1784 71.6464 79.4652C70.4254 80.7521 68.7695 81.4751 67.0428 81.4751H32.9572C31.2305 81.4751 29.5746 80.7521 28.3536 79.4652C27.1327 78.1784 26.4468 76.433 26.4468 74.613V30.9169C26.4468 29.097 27.1327 27.3516 28.3536 26.0647C29.5746 24.7778 31.2305 24.0548 32.9572 24.0548H39.3302V29.0489C39.3302 30.06 39.7112 31.0296 40.3895 31.7446C41.0678 32.4595 41.9878 32.8612 42.9471 32.8612H57.053C58.0122 32.8612 58.9322 32.4595 59.6105 31.7446C60.2888 31.0296 60.6699 30.06 60.6699 29.0489V24.0548H67.0428C68.7695 24.0548 70.4254 24.7778 71.6464 26.0647C72.8673 27.3516 73.5532 29.097 73.5532 30.9169V74.613Z" fill="white"/>
<path d="M66.1837 48H51.8163C51.5998 48 51.3922 48.1054 51.2391 48.2929C51.086 48.4804 51 48.7348 51 49C51 49.2652 51.086 49.5196 51.2391 49.7071C51.3922 49.8946 51.5998 50 51.8163 50H66.1837C66.4002 50 66.6078 49.8946 66.7609 49.7071C66.914 49.5196 67 49.2652 67 49C67 48.7348 66.914 48.4804 66.7609 48.2929C66.6078 48.1054 66.4002 48 66.1837 48Z" fill="white"/>
<path d="M48.1837 48H33.8163C33.5998 48 33.3922 48.1054 33.2391 48.2929C33.086 48.4804 33 48.7348 33 49C33 49.2652 33.086 49.5196 33.2391 49.7071C33.3922 49.8946 33.5998 50 33.8163 50H48.1837C48.4002 50 48.6078 49.8946 48.7609 49.7071C48.914 49.5196 49 49.2652 49 49C49 48.7348 48.914 48.4804 48.7609 48.2929C48.6078 48.1054 48.4002 48 48.1837 48Z" fill="white"/>
<path d="M66.1858 63H51.8142C51.5983 63 51.3912 63.1054 51.2385 63.2929C51.0858 63.4804 51 63.7348 51 64C51 64.2652 51.0858 64.5196 51.2385 64.7071C51.3912 64.8946 51.5983 65 51.8142 65H66.1858C66.4017 65 66.6088 64.8946 66.7615 64.7071C66.9142 64.5196 67 64.2652 67 64C67 63.7348 66.9142 63.4804 66.7615 63.2929C66.6088 63.1054 66.4017 63 66.1858 63Z" fill="white"/>
<path d="M48.1858 63H33.8142C33.5983 63 33.3912 63.1054 33.2385 63.2929C33.0858 63.4804 33 63.7348 33 64C33 64.2652 33.0858 64.5196 33.2385 64.7071C33.3912 64.8946 33.5983 65 33.8142 65H48.1858C48.4017 65 48.6088 64.8946 48.7615 64.7071C48.9142 64.5196 49 64.2652 49 64C49 63.7348 48.9142 63.4804 48.7615 63.2929C48.6088 63.1054 48.4017 63 48.1858 63Z" fill="white"/>
</svg>
