<svg
  xmlns="http://www.w3.org/2000/svg"
  xmlns:xlink="http://www.w3.org/1999/xlink"
  viewBox="0 0 1080 1080"
>
  <defs>
    <style>
      .cls-1 {
        fill: none;
      }
      .cls-2 {
        fill: #d07bb3;
        stroke-miterlimit: 10;
        stroke-width: 3px;
      }
      .cls-3 {
        clip-path: url(#clip-path);
      }
      .cls-4 {
        fill: #fff;
      }
    </style>
    <clipPath id="clip-path">
      <rect class="cls-1" x="91" y="298" width="882" height="538.08" />
    </clipPath>
  </defs>
  <g id="Circle"><circle class="cls-2" cx="533.37" cy="530.97" r="529" /></g>
  <g id="Yup_" data-name="Yup!">
    <g id="Artwork_36" data-name="Artwork 36">
      <g class="cls-3">
        <g class="cls-3">
          <path
            d="M382.28,314.05a5.63,5.63,0,0,1,4.67,8.77L250.74,526.21a9.6,9.6,0,0,0-1.54,4.13L228.68,697.42a5.63,5.63,0,0,1-5.58,4.94H180.24a5.63,5.63,0,0,1-5.58-6.33l21-168.88a9.41,9.41,0,0,0-.86-5.27L99.21,322.12a5.63,5.63,0,0,1,5.07-8.07h45.59a5.64,5.64,0,0,1,5.1,3.26l64.56,139.28a9.48,9.48,0,0,0,16.52,1.23L329.1,316.58a5.6,5.6,0,0,1,4.69-2.53h48.49m0-1.93H333.79a7.54,7.54,0,0,0-6.3,3.4L234.44,456.76a7.54,7.54,0,0,1-13.15-1L156.72,316.5a7.56,7.56,0,0,0-6.85-4.38H104.28A7.56,7.56,0,0,0,97.47,323l95.58,199.76a7.54,7.54,0,0,1,.68,4.21l-21,168.88a7.56,7.56,0,0,0,7.5,8.49H223.1a7.55,7.55,0,0,0,7.49-6.64l20.53-167.08a7.52,7.52,0,0,1,1.22-3.29L388.56,323.9a7.57,7.57,0,0,0-6.28-11.78"
          />
          <path
            class="cls-4"
            d="M174.52,689.2a6.6,6.6,0,0,1-6.54-7.41l21-168.88a8.56,8.56,0,0,0-.77-4.73L92.62,308.41A6.6,6.6,0,0,1,98.56,299h45.59a6.62,6.62,0,0,1,6,3.82l64.56,139.28a8.52,8.52,0,0,0,14.84,1.11l93-141.24a6.56,6.56,0,0,1,5.5-3h48.49A6.6,6.6,0,0,1,382,309.24L245.83,512.62a8.46,8.46,0,0,0-1.38,3.71L223.92,683.41a6.6,6.6,0,0,1-6.54,5.79Z"
          />
          <path
            d="M376.57,299.93a5.63,5.63,0,0,1,4.67,8.77L245,512.09a9.55,9.55,0,0,0-1.53,4.12L223,683.29a5.63,5.63,0,0,1-5.58,5H174.52a5.63,5.63,0,0,1-5.58-6.33l21-168.88a9.57,9.57,0,0,0-.86-5.27L93.49,308a5.63,5.63,0,0,1,5.07-8.07h45.59a5.64,5.64,0,0,1,5.1,3.26l64.57,139.28a9.48,9.48,0,0,0,16.52,1.23l93-141.24a5.6,5.6,0,0,1,4.69-2.53h48.5m0-1.93h-48.5a7.56,7.56,0,0,0-6.3,3.4l-93,141.24a7.54,7.54,0,0,1-13.15-1L151,302.38a7.56,7.56,0,0,0-6.85-4.38H98.56a7.56,7.56,0,0,0-6.81,10.83l95.59,199.76a7.63,7.63,0,0,1,.68,4.21L167,681.67a7.57,7.57,0,0,0,7.5,8.5h42.86a7.56,7.56,0,0,0,7.5-6.64L245.4,516.45a7.61,7.61,0,0,1,1.23-3.29L382.84,309.77A7.56,7.56,0,0,0,376.57,298"
          />
          <path
            d="M543.52,462a8.24,8.24,0,0,1,6.19,2.79,8.32,8.32,0,0,1,2,6.5L536.15,598.91a280.36,280.36,0,0,1-5,30.74,151.33,151.33,0,0,1-6.49,21.77c-4.58,11-12.4,20.88-23.23,29.42-18.49,14.54-43.24,21.92-73.57,21.92-28.79,0-52.07-7.44-69.19-22.12S333,645.79,333,621c0-3.83.21-8.39.63-13.55s1.05-11.2,1.89-17.93l14.62-120.18a8.29,8.29,0,0,1,8.22-7.28h35.43a8.28,8.28,0,0,1,8.21,9.3L386.88,594.08c-.67,5.76-1.19,10.86-1.52,15.17s-.52,8-.52,10.94c0,26.37,15.58,39.74,46.28,39.74,16.54,0,29-4.4,36.9-13.06s13.13-23.6,15.7-44.71l16.39-132.88a8.28,8.28,0,0,1,8.21-7.27h35.2m0-1.93h-35.2a10.21,10.21,0,0,0-10.13,9L481.81,601.92Q478,633.14,466.6,645.57T431.12,658q-44.34,0-44.35-37.81c0-2.87.17-6.47.51-10.78s.84-9.35,1.52-15.1l15.07-122.77a10.21,10.21,0,0,0-10.13-11.46H358.31a10.22,10.22,0,0,0-10.14,9L333.55,589.23q-1.26,10.15-1.9,18T331,621q0,38.32,26.36,61.15,26.36,22.59,70.45,22.59,46.38,0,74.76-22.33,16.73-13.2,23.82-30.2A154.54,154.54,0,0,0,533,630.09a281.13,281.13,0,0,0,5.07-31l15.58-127.59a10.21,10.21,0,0,0-10.13-11.46"
          />
          <path
            class="cls-4"
            d="M422.11,689.6c-29,0-52.52-7.52-69.82-22.35s-26-35.29-26-60.42c0-3.86.21-8.44.63-13.63s1.05-11.21,1.9-18l14.61-120.18a9.26,9.26,0,0,1,9.18-8.13H388a9.24,9.24,0,0,1,9.17,10.38L382.13,580.07c-.68,5.74-1.19,10.84-1.53,15.14s-.51,7.95-.51,10.86c0,25.73,15.25,38.77,45.32,38.77,16.26,0,28.43-4.29,36.19-12.75s12.9-23.26,15.45-44.18L493.43,455a9.26,9.26,0,0,1,9.17-8.12h35.2A9.25,9.25,0,0,1,547,457.3L531.4,584.89a281.55,281.55,0,0,1-5.06,30.86,152.94,152.94,0,0,1-6.54,21.93c-4.64,11.12-12.56,21.15-23.52,29.8-18.66,14.68-43.62,22.12-74.17,22.12"
          />
          <path
            d="M537.8,447.88a8.28,8.28,0,0,1,8.22,9.3L530.44,584.79a280.57,280.57,0,0,1-5,30.74,152.56,152.56,0,0,1-6.48,21.76c-4.59,11-12.4,20.88-23.24,29.43-18.49,14.54-43.24,21.92-73.57,21.92-28.79,0-52.07-7.45-69.19-22.12s-25.69-34.85-25.69-59.69c0-3.84.22-8.4.63-13.55s1.05-11.21,1.89-17.94l14.62-120.17a8.3,8.3,0,0,1,8.22-7.29H388a8.3,8.3,0,0,1,8.22,9.3L381.17,580c-.68,5.76-1.19,10.86-1.53,15.17s-.51,8-.51,10.94c0,26.36,15.57,39.74,46.28,39.74,16.54,0,28.95-4.4,36.9-13.06S475.44,609.15,478,588l16.38-132.87a8.29,8.29,0,0,1,8.21-7.28h35.2m0-1.93H502.6a10.22,10.22,0,0,0-10.13,9L476.09,587.8q-3.79,31.2-15.2,43.64t-35.48,12.44q-44.36,0-44.35-37.81c0-2.88.17-6.47.51-10.79s.84-9.34,1.52-15.1l15.06-122.76A10.22,10.22,0,0,0,388,446H352.59a10.21,10.21,0,0,0-10.13,9L327.84,575.11q-1.27,10.15-1.9,18t-.64,13.7q0,38.31,26.36,61.15,26.35,22.59,70.45,22.58,46.38,0,74.76-22.32Q513.6,655,520.7,638A154.31,154.31,0,0,0,527.29,616a283.1,283.1,0,0,0,5.06-31l15.58-127.6A10.21,10.21,0,0,0,537.8,446"
          />
          <path
            d="M737.68,455.44c31.13,0,57.42,11,78.11,32.73S847,537.78,847,571c0,37-12,68.52-35.81,93.81-23.55,25.08-53.25,37.8-88.27,37.8-17.9,0-32.74-2.84-44.14-8.46-8.87-4.2-18.31-11-28.06-20.34a9.12,9.12,0,0,0-15.38,5.47l-18.48,150.2a5.28,5.28,0,0,1-5.24,4.64H570a5.29,5.29,0,0,1-5.24-5.94l44.47-362.28a5.29,5.29,0,0,1,5.24-4.64h41.63a5.28,5.28,0,0,1,5.23,6,9,9,0,0,0,2.21,7.14,9.19,9.19,0,0,0,6.88,3.13,9,9,0,0,0,5.13-1.62c19.79-13.59,40.69-20.48,62.11-20.48m-20.61,204.9c21.76,0,40.32-8.41,55.18-25,14.78-16.86,22.27-37.44,22.27-61.16,0-21.53-6.31-39.47-18.73-53.3-12.49-14.06-28.67-21.2-48.07-21.2-23.1,0-42.68,8.58-58.2,25.49S646.21,563,646.21,587.61c0,21.58,6.67,39.2,19.81,52.35,13.15,13.52,30.33,20.38,51.05,20.38m20.61-206.83q-32.89,0-63.2,20.82a7.11,7.11,0,0,1-4,1.28,7.23,7.23,0,0,1-7.17-8.1v-.06a7.22,7.22,0,0,0-7.16-8.09H614.49a7.22,7.22,0,0,0-7.16,6.34L562.87,828a7.22,7.22,0,0,0,7.15,8.1h41.62a7.21,7.21,0,0,0,7.16-6.34l18.47-150.19a7.2,7.2,0,0,1,12.14-4.32q14.93,14.24,28.56,20.69,17.53,8.64,45,8.65,53.59,0,89.68-38.41Q849,627.51,849,571q0-50.87-31.76-84.2t-79.51-33.32m-20.61,204.9q-30.42,0-49.67-19.79-19.26-19.29-19.26-51,0-36.29,22.81-61.15t56.77-24.87q28.37,0,46.63,20.55,18.24,20.31,18.24,52,0,35-21.79,59.89Q749,658.41,717.07,658.41"
          />
          <path
            class="cls-4"
            d="M564.31,821a6.26,6.26,0,0,1-6.2-7l44.47-362.28a6.24,6.24,0,0,1,6.19-5.49h41.64a6.25,6.25,0,0,1,6.19,7,8.09,8.09,0,0,0,2,6.44,8.27,8.27,0,0,0,6.17,2.8,8,8,0,0,0,4.58-1.45c20-13.7,41-20.65,62.65-20.65,31.41,0,57.93,11.11,78.82,33s31.49,50,31.49,83.52c0,37.22-12.14,69-36.07,94.48-23.75,25.28-53.68,38.1-89,38.1-18,0-33-2.87-44.54-8.54-9-4.25-18.5-11.15-28.32-20.53a8.16,8.16,0,0,0-13.76,4.9L612.13,815.5a6.26,6.26,0,0,1-6.2,5.49ZM722,486.51c-22.82,0-42.15,8.47-57.48,25.18s-23.06,37.48-23.06,61.8c0,21.32,6.57,38.71,19.54,51.69,13,13.31,29.9,20.07,50.35,20.07,21.48,0,39.79-8.3,54.45-24.68,14.63-16.69,22-37.05,22-60.53,0-21.29-6.22-39-18.49-52.66-12.3-13.85-28.23-20.87-47.35-20.87"
          />
          <path
            d="M732,441.32c31.14,0,57.42,11,78.12,32.72s31.22,49.62,31.22,82.86c0,37-12,68.53-35.8,93.82-23.56,25.08-53.26,37.8-88.27,37.8-17.91,0-32.75-2.84-44.15-8.47-8.87-4.19-18.31-11-28.06-20.34a9.13,9.13,0,0,0-15.38,5.48L611.17,815.38a5.29,5.29,0,0,1-5.24,4.64H564.31a5.24,5.24,0,0,1-3.95-1.78,5.31,5.31,0,0,1-1.29-4.15l44.46-362.28a5.3,5.3,0,0,1,5.24-4.64h41.64a5.29,5.29,0,0,1,5.23,6,9,9,0,0,0,2.2,7.14,9.21,9.21,0,0,0,6.89,3.13,9,9,0,0,0,5.12-1.62c19.8-13.59,40.69-20.48,62.11-20.48M711.35,646.21c21.76,0,40.32-8.41,55.18-25,14.78-16.87,22.28-37.44,22.28-61.16,0-21.53-6.31-39.47-18.74-53.3-12.49-14.07-28.66-21.2-48.07-21.2-23.1,0-42.68,8.58-58.19,25.49s-23.32,37.89-23.32,62.46c0,21.58,6.67,39.2,19.81,52.35,13.15,13.52,30.33,20.37,51.05,20.37M732,439.39q-32.88,0-63.2,20.82a7.08,7.08,0,0,1-4,1.28,7.24,7.24,0,0,1-7.18-8.11v-.05a7.22,7.22,0,0,0-7.15-8.09H608.77a7.21,7.21,0,0,0-7.15,6.34L557.15,813.86a7.22,7.22,0,0,0,7.16,8.09h41.62a7.2,7.2,0,0,0,7.15-6.33l18.48-150.19a7.19,7.19,0,0,1,12.13-4.32q14.92,14.24,28.57,20.69,17.52,8.64,45,8.65,53.6,0,89.67-38.41,36.33-38.67,36.33-95.14,0-50.86-31.75-84.19T732,439.39m-20.61,204.9q-30.4,0-49.67-19.8-19.26-19.28-19.26-51,0-36.29,22.81-61.15T722,487.47q28.38,0,46.63,20.55,18.24,20.31,18.25,52,0,35-21.8,59.89-21.8,24.36-53.73,24.36"
          />
          <path
            d="M962.89,308.25a8.19,8.19,0,0,1,8.12,9.19L937.92,587a8.18,8.18,0,0,1-8.11,7.18h-35a8.18,8.18,0,0,1-8.11-9.18L919.5,315.45a8.19,8.19,0,0,1,8.12-7.2h35.27M903,637.84a31.44,31.44,0,0,1,22.7,9.44,33.19,33.19,0,0,1,6.82,10.55A34.91,34.91,0,0,1,935,671.18c0,9-3,16.38-9.06,22.49s-13.45,9.08-22.46,9.08a31.73,31.73,0,0,1-23.2-9.57c-6.2-6.36-9.34-14.45-9.34-24A29.94,29.94,0,0,1,880,647a32.89,32.89,0,0,1,23-9.13m59.91-331.52H927.62a10.11,10.11,0,0,0-10,8.89L884.73,584.76a10.12,10.12,0,0,0,10,11.34h35a10.1,10.1,0,0,0,10-8.88l33.09-269.55a10.11,10.11,0,0,0-10-11.35M903,635.91a34.63,34.63,0,0,0-24.32,9.64,32.1,32.1,0,0,0-9.64,23.6q0,15.23,9.89,25.38a33.45,33.45,0,0,0,24.58,10.14,32.91,32.91,0,0,0,33.45-33.49,36.55,36.55,0,0,0-2.66-14.08,34.74,34.74,0,0,0-7.22-11.17,33,33,0,0,0-10.77-7.36A33.51,33.51,0,0,0,903,635.91"
          />
          <path
            class="cls-4"
            d="M897.78,695.39a32.66,32.66,0,0,1-23.9-9.87c-6.37-6.54-9.61-14.85-9.61-24.69a31.33,31.33,0,0,1,9.35-22.92,33.84,33.84,0,0,1,23.65-9.36,32.51,32.51,0,0,1,12.92,2.59,32.14,32.14,0,0,1,10.46,7.14,34,34,0,0,1,7,10.86,35.85,35.85,0,0,1,2.59,13.72,31.94,31.94,0,0,1-32.48,32.53m-8.73-108.58A9.16,9.16,0,0,1,880,576.55L912.83,307A9.16,9.16,0,0,1,921.9,299h35.28a9.16,9.16,0,0,1,9.07,10.27L933.16,578.78a9.15,9.15,0,0,1-9.07,8Z"
          />
          <path
            d="M957.18,299.93a8.18,8.18,0,0,1,8.11,9.19L932.2,578.66a8.18,8.18,0,0,1-8.11,7.19h-35a8.19,8.19,0,0,1-8.12-9.18l32.86-269.55a8.18,8.18,0,0,1,8.11-7.19h35.28M897.27,629.51A31.53,31.53,0,0,1,909.81,632,30.94,30.94,0,0,1,920,639a33,33,0,0,1,6.82,10.55,34.91,34.91,0,0,1,2.52,13.35c0,9-3,16.38-9.07,22.49s-13.45,9.07-22.45,9.07a31.7,31.7,0,0,1-23.2-9.56c-6.2-6.36-9.34-14.45-9.34-24a30,30,0,0,1,9-22.19,32.94,32.94,0,0,1,23-9.13M957.18,298H921.9a10.1,10.1,0,0,0-10,8.89L879,576.44a10.1,10.1,0,0,0,10,11.34h35a10.12,10.12,0,0,0,10-8.88l33.09-269.55a10.11,10.11,0,0,0-10-11.35M897.27,627.59a34.61,34.61,0,0,0-24.33,9.64,32.13,32.13,0,0,0-9.63,23.6q0,15.23,9.88,25.37a33.46,33.46,0,0,0,24.59,10.15,32.91,32.91,0,0,0,33.45-33.49,36.78,36.78,0,0,0-2.66-14.09,34.83,34.83,0,0,0-7.23-11.16,33.31,33.31,0,0,0-24.07-10"
          />
        </g>
      </g>
    </g>
  </g>
</svg>
